PathFileType	4	(X/Y/Z)	path1_23_0-642.trc
DataRate	CameraRate	NumFrames	NumMarkers	Units	OrigDataRate	OrigDataStartFrame	OrigNumFrames
30	30	7	22	m	30	401	642
Frame#	Time	Hip			RHip			RKnee			RAnkle			RBigToe			RSmallToe			RHeel			LHip			LKnee			LAnkle			LBigToe			LSmallToe			LHeel			Neck			Head			Nose			RShoulder			RElbow			RWrist			LShoulder			LElbow			LWrist		
		X1	Y1	Z1	X2	Y2	Z2	X3	Y3	Z3	X4	Y4	Z4	X5	Y5	Z5	X6	Y6	Z6	X7	Y7	Z7	X8	Y8	Z8	X9	Y9	Z9	X10	Y10	Z10	X11	Y11	Z11	X12	Y12	Z12	X13	Y13	Z13	X14	Y14	Z14	X15	Y15	Z15	X16	Y16	Z16	X17	Y17	Z17	X18	Y18	Z18	X19	Y19	Z19	X20	Y20	Z20	X21	Y21	Z21	X22	Y22	Z22
402	13.4	1.103961773553319	0.8302922431105639	0.6192239228719596	1.1180924408821453	0.8042642540954021	0.524269678230969	1.1949235210715967	0.4626465958454821	0.5291827113712356	1.4133266663676052	0.14504405837057968	0.5620434870271213	1.2800887187501115	0.028600917842114288	0.5566584636755108	1.3242037036933407	0.03580088709113437	0.5186726111842054	1.4802795541933764	0.0903180836436429	0.5749079901334021	1.0969299891181568	0.8006260164439001	0.717270162237145	0.939908531161336	0.4703060927978999	0.6952200652559639	0.8472101723855825	0.12120226414025559	0.6701983192954102	0.6602994263958741	0.08286912947738688	0.6860004376486689	0.700119451834245	0.06811613653546304	0.7312587929803918	0.8649730231251508	0.046228239552089496	0.6595753636468895	1.0405111472725566	1.4299840656305944	0.621829107722305	0.9399933747391052	1.6673822842125576	0.5663938033062639	0.8918890549417997	1.5536476756765063	0.6129043224293855	1.0614431910929623	1.3278873072833568	0.442366095538799	1.0030983455021896	1.0623259712394022	0.39459445616180006	0.8528410812931304	0.86821465818843	0.3897973497127932	1.0508269590123935	1.336684004541915	0.7922070281263168	1.1536121510907675	1.074910538131597	0.8350141979566886	1.171179760327443	0.8303260690578333	0.8607677263549885
403	13.433333333333334	1.0628130066515677	0.8309125213411291	0.6240389621729673	1.0744608952728614	0.8054595969903122	0.5281736936718676	1.148440309585299	0.45822617212671785	0.5322342367775605	1.388044684292821	0.1643580203806155	0.5571200677668485	1.2740860641417044	0.02726779183708897	0.5527469937481685	1.3242343828874783	0.04380931093468327	0.5142501772236023	1.453877832452895	0.1223539412173372	0.5676999668825186	1.0550035098225186	0.8010534233130058	0.7199830248288166	0.9091778257926919	0.46876400931867096	0.6959358402277638	0.8370195877489377	0.11736724022545614	0.6670466947635652	0.650825827393234	0.0692900953383574	0.6831901582402855	0.6923371577748577	0.05465998696830579	0.728998391733873	0.8616449110568309	0.04376283107924363	0.6581425054730873	1.003303431090611	1.4317443583487337	0.6281011242922468	0.9030655609407312	1.6700371047099165	0.5720747635793677	0.8519059488983507	1.5560260035978941	0.6191310428129921	1.0236335100044864	1.3305264183376957	0.4493052531133057	0.9713783066851838	1.0616929740503223	0.4015840248709774	0.828048312028863	0.8635587168977469	0.39657584238849536	1.0152749857325856	1.3385899067211016	0.7982893610928781	1.1100162222451206	1.0730831468147186	0.8369396570674461	1.1208090792378926	0.8295906688252928	0.8632582381864233
404	13.466666666666669	1.0208167473810388	0.8321009859664915	0.6286214215231847	1.0298032871848743	0.8074398073775021	0.5320044995265043	1.0930175295449893	0.4556740032512658	0.5329534792769224	1.3510941902559122	0.18673536849451958	0.5514850242443212	1.260099967375592	0.026639894574786133	0.5482062955899419	1.3144145939843257	0.055737969201793594	0.5087171813203604	1.41378520212742	0.15771006406885033	0.5602011719985599	1.0130580155883002	0.8024871736365785	0.722657829790884	0.8809965794510152	0.4684600947795946	0.6967394747608188	0.8320275249364448	0.11365794771375262	0.6660932073288796	0.6465115281515493	0.05595779643625725	0.6805870041017841	0.6878703002822264	0.043366749680712566	0.7273867550410834	0.8636499400824107	0.04151407804444258	0.6578254309772303	0.9667306323406639	1.4350164994217054	0.6337893512174302	0.8791890396372047	1.6729685280999906	0.5864936988178646	0.8119872132157604	1.5593029197497794	0.6262064042466721	0.9871246694873176	1.3349529566454632	0.4557813887499671	0.9416296121588494	1.0625928132621747	0.4085081824133982	0.80858228474184	0.8588533529193827	0.40273458346730623	0.9820860154035239	1.3407988914408768	0.8049982810872836	1.0642953207783585	1.0717450397733796	0.8395045781175843	1.0648513537799207	0.8301119525904347	0.8662273941691307
405	13.5	0.9785785537531524	0.8338933992561811	0.6328218822526699	0.9850100578923705	0.8102613957387019	0.5355463424528059	1.0293436428633085	0.4565018894010989	0.5315605524165785	1.3018482363456432	0.20925552105675405	0.5462038581098763	1.231555565122963	0.02836154613111595	0.5425864462153894	1.2878692232097002	0.07030257522326659	0.5026665906443133	1.360904123770968	0.19080207857804984	0.5536330085841993	0.9715976670137481	0.8047919523313072	0.7249921674774618	0.8561292261789097	0.4691115008666447	0.6973359927431418	0.8300204124296822	0.11020167139116588	0.6666426565900381	0.6450265561452468	0.04439224812275444	0.6786146740857516	0.6850262709634105	0.03521579090815219	0.7261833214330086	0.867219416967514	0.039476538650412035	0.6579036164866912	0.9307630246466597	1.439505888636828	0.6386553940671496	0.8617397403798164	1.6762852264361632	0.6044365883488757	0.7732328630998967	1.5630803970522353	0.634082006911205	0.9522776943425437	1.340573556943855	0.46145727396744407	0.9140881611662611	1.0647759818129046	0.4148960960088543	0.7938777200049073	0.8547709268318324	0.4079036460769153	0.950900890603467	1.3429831871771505	0.8117042185809988	1.0166541384667251	1.0706970779941818	0.8424458591254681	1.005031049658218	0.8319358169583214	0.8699009347392448
406	13.533333333333331	0.936866491180744	0.8364771801384585	0.6364066837488955	0.9408688767699432	0.8139188985731601	0.5385087870831659	0.959864255747432	0.4612779485529699	0.5293638569689751	1.2407215364075714	0.22853344995547772	0.5421896857484493	1.1817815345906495	0.034041072770911625	0.5352012381752483	1.2386264595461238	0.08491626960724503	0.4961508565973423	1.2978351290899839	0.21591887109203461	0.5490191957170668	0.9311704489948462	0.8077823420826045	0.7265021052469222	0.8349198697332307	0.4704673905371501	0.697688818352713	0.8293050931160734	0.10745313889377076	0.6677385337389169	0.6444354568724314	0.03548561956182256	0.6775174673729719	0.6828568804616927	0.02994569285818787	0.7252458794443779	0.86991394457545	0.03784503414527766	0.6578973719925528	0.8950370976551456	1.4447573967670828	0.6426859388691218	0.8431303828967327	1.6799986124216884	0.6207020913335516	0.7361548961842685	1.5671199750628027	0.642372947891681	0.918911971713997	1.3465614816589317	0.4661720052286397	0.8888854788322476	1.0678845775938144	0.42038597738017197	0.7831639617939631	0.8518615231920642	0.4117071037075992	0.9203519352094597	1.345152721747126	0.8175456453461764	0.9672375823188964	1.069894543233163	0.8455080742859269	0.9433310799487739	0.8351032705776991	0.8749597919166279
407	13.566666666666666	0.8963775158761171	0.8400046501135814	0.639016027670432	0.8979364546452946	0.8181952930253203	0.5405301529753792	0.8880303731916008	0.46962201468973647	0.527675812021487	1.1685519678814065	0.2416012788970923	0.5398330951282614	1.106571933001101	0.04414732199689312	0.5256241935013166	1.1631103944358656	0.0967628428555614	0.48859767353139416	1.2262817529006493	0.22883687256691454	0.5466098291841757	0.8922773610496467	0.8111895478218459	0.7266921576765526	0.817237282445101	0.4720222639623617	0.6980657065383349	0.8288491348751085	0.10599852995125403	0.6686801614470607	0.6435635021071016	0.0295129381738556	0.6773255352552046	0.6810734462143441	0.026677805526296856	0.7245585987030122	0.8705439257328375	0.03701303927838417	0.6575697991874911	0.8591810107117255	1.4501574750855262	0.6460175707479668	0.819311568478041	1.6836648187832568	0.6332016611676345	0.7004072666268194	1.571201788234088	0.6502288772537687	0.8864574821885228	1.351999536728358	0.4698689144021635	0.8659092545457627	1.0716016984537187	0.4248244366009963	0.7754916974411645	0.8504584786502589	0.41388439898628626	0.8887220144320719	1.3473952271724696	0.8218906881937746	0.9161853330109325	1.0697999444716348	0.8488190263708201	0.8809834210905022	0.8397162432198615	0.8818009230099242
408	13.6	0.8575989283670217	0.844295401100759	0.640385106056634	0.8566015508057063	0.8225685833740556	0.5412647047318224	0.8170494598064915	0.4805652215733676	0.5271289805814876	1.086664805720597	0.24643563043395578	0.5390531386281627	1.0064578011039378	0.05730051481733195	0.5143832434660859	1.0619037061185428	0.10360006569540757	0.47959229668315045	1.145817343827323	0.227742736610728	0.5457076625284266	0.8553307074139365	0.8145453240446574	0.7254544025262397	0.8023902192470176	0.4731105839128938	0.6989751775612687	0.8282063193139563	0.10611266031519163	0.66921712032799	0.6419653435571919	0.026199247986651557	0.677906616450378	0.6798848010675971	0.024513116721324887	0.724177172900829	0.8687356172468219	0.03726357187346032	0.6569606899782543	0.823124658896268	1.4550454267854314	0.6488161892098465	0.7896156868965684	1.6867087601641966	0.6419100427538407	0.665409285539322	1.5750056168005466	0.6567946586313981	0.8543682356314757	1.356266618855743	0.4725998484383507	0.844748857197996	1.0756327275412878	0.4282384747976496	0.7697560169096208	0.8505148974403052	0.41441569654195376	0.8549651284660584	1.349565567953896	0.8247222786827672	0.8640270948262906	1.0711292301166369	0.8529920607422037	0.8181746270053614	0.8457596846678248	0.8898054510863398
